<?xml version="1.0" encoding="UTF-8" standalone="no"?>
<!-- Created with Inkscape (http://www.inkscape.org/) -->

<svg
   xmlns:dc="http://purl.org/dc/elements/1.1/"
   xmlns:cc="http://creativecommons.org/ns#"
   xmlns:rdf="http://www.w3.org/1999/02/22-rdf-syntax-ns#"
   xmlns:svg="http://www.w3.org/2000/svg"
   xmlns="http://www.w3.org/2000/svg"
   xmlns:xlink="http://www.w3.org/1999/xlink"
   xmlns:sodipodi="http://sodipodi.sourceforge.net/DTD/sodipodi-0.dtd"
   xmlns:inkscape="http://www.inkscape.org/namespaces/inkscape"
   width="135.46666mm"
   height="135.46666mm"
   viewBox="0 0 135.46666 135.46666"
   version="1.1"
   id="svg8"
   inkscape:version="0.92.5 (2060ec1f9f, 2020-04-08)"
   sodipodi:docname="Pioter - EasyOffice — kopia.svg">
  <defs
     id="defs2">
    <inkscape:path-effect
       effect="spiro"
       id="path-effect975"
       is_visible="true" />
    <linearGradient
       inkscape:collect="always"
       id="linearGradient843">
      <stop
         style="stop-color:#f46060;stop-opacity:1"
         offset="0"
         id="stop839" />
      <stop
         style="stop-color:#ff2121;stop-opacity:0.94901961"
         offset="1"
         id="stop841" />
    </linearGradient>
    <radialGradient
       inkscape:collect="always"
       xlink:href="#linearGradient843"
       id="radialGradient853"
       cx="-251.51843"
       cy="73.655449"
       fx="-251.51843"
       fy="73.655449"
       r="58.088772"
       gradientUnits="userSpaceOnUse"
       gradientTransform="matrix(0,1.2422845,-1.2422844,0,-322.86989,419.43824)" />
  </defs>
  <sodipodi:namedview
     id="base"
     pagecolor="#6c6c6c"
     bordercolor="#666666"
     borderopacity="1.0"
     inkscape:pageopacity="0"
     inkscape:pageshadow="2"
     inkscape:zoom="0.7"
     inkscape:cx="-58.590821"
     inkscape:cy="53.8327"
     inkscape:document-units="mm"
     inkscape:current-layer="layer1"
     showgrid="false"
     inkscape:lockguides="false"
     inkscape:window-width="1920"
     inkscape:window-height="1027"
     inkscape:window-x="1912"
     inkscape:window-y="22"
     inkscape:window-maximized="1"
     inkscape:snap-global="true"
     fit-margin-top="0"
     fit-margin-left="0"
     fit-margin-right="0"
     fit-margin-bottom="0" />
  <metadata
     id="metadata5">
    <rdf:RDF>
      <cc:Work
         rdf:about="">
        <dc:format>image/svg+xml</dc:format>
        <dc:type
           rdf:resource="http://purl.org/dc/dcmitype/StillImage" />
        <dc:title></dc:title>
      </cc:Work>
    </rdf:RDF>
  </metadata>
  <g
     inkscape:label="Layer 1"
     inkscape:groupmode="layer"
     id="layer1">
    <g
       transform="matrix(0.56906473,0,0,0.56906473,760.61578,-580.29243)"
       id="g2576"
       style="stroke-width:1.75726938">
      <circle
         transform="rotate(-15)"
         style="opacity:1;fill:#ffffff;fill-opacity:1;stroke:none;stroke-width:0.46567634;stroke-linecap:round;stroke-linejoin:round;stroke-miterlimit:4;stroke-dasharray:none;stroke-dashoffset:0;stroke-opacity:1;paint-order:normal"
         id="circle2550"
         cx="-1454.3438"
         cy="789.23651"
         r="94.494049" />
      <circle
         transform="rotate(-15)"
         r="87.488426"
         cy="789.23651"
         cx="-1454.3438"
         id="circle2552"
         style="opacity:1;fill:#1a1a1a;fill-opacity:1;stroke:none;stroke-width:0.43115196;stroke-linecap:round;stroke-linejoin:round;stroke-miterlimit:4;stroke-dasharray:none;stroke-dashoffset:0;stroke-opacity:1;paint-order:normal" />
      <path
         sodipodi:nodetypes="ccccccccccccccc"
         inkscape:connector-curvature="0"
         id="path2554"
         d="m -1283.1688,1080.868 -16.3902,16.3902 h 107.7689 l 16.3902,-16.3902 z m -18.5239,18.5244 -16.3902,16.3897 h 107.7688 l 16.3902,-16.3897 z m -18.5245,18.524 -16.3896,16.3897 h 107.7688 l 16.3897,-16.3897 z"
         style="opacity:1;fill:#ffffff;fill-opacity:1;stroke:none;stroke-width:0.42068344;stroke-linecap:round;stroke-linejoin:round;stroke-miterlimit:4;stroke-dasharray:none;stroke-dashoffset:0;stroke-opacity:1;paint-order:normal" />
      <g
         id="g2572"
         transform="translate(-826.7301,668.86523)"
         style="fill:#ffffff;fill-opacity:1;stroke-width:1.75726938">
        <path
           id="path2556"
           d="m -345.64628,412.00262 -16.3897,16.39022 h 73.821 l 16.3897,-16.39022 z"
           style="opacity:1;fill:#ffffff;fill-opacity:1;stroke:none;stroke-width:0.42068344;stroke-linecap:round;stroke-linejoin:round;stroke-miterlimit:4;stroke-dasharray:none;stroke-dashoffset:0;stroke-opacity:1;paint-order:normal"
           inkscape:connector-curvature="0" />
        <path
           inkscape:connector-curvature="0"
           id="path2558"
           d="m -345.64628,412.00262 23.17928,-10e-6 -52.19933,52.19933 -23.17928,1e-5 z"
           style="opacity:1;fill:#ffffff;fill-opacity:1;stroke:none;stroke-width:0.42068344;stroke-linecap:round;stroke-linejoin:round;stroke-miterlimit:4;stroke-dasharray:none;stroke-dashoffset:0;stroke-opacity:1;paint-order:normal" />
        <path
           id="path2560"
           d="m -382.69414,449.051 -16.39023,16.3897 h 73.821 l 16.39023,-16.3897 z"
           style="opacity:1;fill:#ffffff;fill-opacity:1;stroke:none;stroke-width:0.42068344;stroke-linecap:round;stroke-linejoin:round;stroke-miterlimit:4;stroke-dasharray:none;stroke-dashoffset:0;stroke-opacity:1;paint-order:normal"
           inkscape:connector-curvature="0" />
        <path
           style="opacity:1;fill:#ffffff;fill-opacity:1;stroke:none;stroke-width:0.42068344;stroke-linecap:round;stroke-linejoin:round;stroke-miterlimit:4;stroke-dasharray:none;stroke-dashoffset:0;stroke-opacity:1;paint-order:normal"
           d="m -296.24332,413.24138 23.17928,-10e-6 -52.19933,52.19933 -23.17928,1e-5 z"
           id="path2562"
           inkscape:connector-curvature="0" />
        <path
           inkscape:connector-curvature="0"
           style="opacity:1;fill:#ffffff;fill-opacity:1;stroke:none;stroke-width:0.42068344;stroke-linecap:round;stroke-linejoin:round;stroke-miterlimit:4;stroke-dasharray:none;stroke-dashoffset:0;stroke-opacity:1;paint-order:normal"
           d="m -345.64628,412.00262 -16.3897,16.39022 h 73.821 l 16.3897,-16.39022 z"
           id="path2564" />
        <path
           style="opacity:1;fill:#ffffff;fill-opacity:1;stroke:none;stroke-width:0.42068344;stroke-linecap:round;stroke-linejoin:round;stroke-miterlimit:4;stroke-dasharray:none;stroke-dashoffset:0;stroke-opacity:1;paint-order:normal"
           d="m -345.64628,412.00262 23.17928,-10e-6 -52.19933,52.19933 -23.17928,1e-5 z"
           id="path2566"
           inkscape:connector-curvature="0" />
        <path
           inkscape:connector-curvature="0"
           style="opacity:1;fill:#ffffff;fill-opacity:1;stroke:none;stroke-width:0.42068344;stroke-linecap:round;stroke-linejoin:round;stroke-miterlimit:4;stroke-dasharray:none;stroke-dashoffset:0;stroke-opacity:1;paint-order:normal"
           d="m -382.69414,449.051 -16.39023,16.3897 h 73.821 l 16.39023,-16.3897 z"
           id="path2568" />
        <path
           inkscape:connector-curvature="0"
           id="path2570"
           d="m -296.24332,413.24138 23.17928,-10e-6 -52.19933,52.19933 -23.17928,1e-5 z"
           style="opacity:1;fill:#ffffff;fill-opacity:1;stroke:none;stroke-width:0.42068344;stroke-linecap:round;stroke-linejoin:round;stroke-miterlimit:4;stroke-dasharray:none;stroke-dashoffset:0;stroke-opacity:1;paint-order:normal" />
      </g>
      <path
         style="opacity:1;fill:#ffffff;fill-opacity:1;stroke:none;stroke-width:0.4880785;stroke-linecap:round;stroke-linejoin:round;stroke-miterlimit:4;stroke-dasharray:none;stroke-dashoffset:0;stroke-opacity:1;paint-order:normal"
         d="m -1170.2212,1136.4227 -13.0933,5e-4 -76.0941,76.0941 a 94.494047,94.494047 0 0 0 7.6125,5.4798 z m 3.0179,0 -82.782,82.782 a 94.494047,94.494047 0 0 0 8.4599,4.6328 l 87.4153,-87.4148 z m -35.2408,5e-4 -13.0932,6e-4 -59.8496,59.8501 a 94.494047,94.494047 0 0 0 6.011,7.0812 z m 3.0185,0 -68.4455,68.4455 a 94.494047,94.494047 0 0 0 6.8063,6.2864 l 74.7319,-74.7319 z m -51.352,6e-4 -13.0932,10e-4 -27.6562,27.6561 a 94.494047,94.494047 0 0 0 3.3776,9.7147 z m 3.018,0 -39.5237,39.5236 a 94.494047,94.494047 0 0 0 4.3082,8.785 l 48.3087,-48.3086 z m 16.1111,0 -50.2889,50.2894 a 94.494047,94.494047 0 0 0 5.1986,7.8941 l 58.1836,-58.1835 z m -51.3519,5e-4 h -11.9285 a 94.494047,94.494047 0 0 0 0.4661,11.4613 z m 3.0184,5e-4 -14.1764,14.1764 a 94.494047,94.494047 0 0 0 2.0319,11.0608 l 25.2373,-25.2372 z"
         id="path2574"
         inkscape:connector-curvature="0" />
    </g>
  </g>
</svg>
